<?xml version="1.0" encoding="UTF-8"?>
<svg width="1300.3" height="1300.3" version="1.1" viewBox="0 0 1300.3 1300.3" xmlns="http://www.w3.org/2000/svg">
 <path d="m294.6 1102.5c-94.219-33.488-179.23-76.725-259.05-131.75l-29.206-20.135-1.6773-13.74c-0.92253-7.5568-2.4953-39.454-3.495-70.882-6.9921-219.81 49.967-424.07 173.76-623.13 21.07-33.881 22.411-35.433 35.857-41.515 23.94-10.828 81.4-32.821 107.53-41.157 51.41-16.401 143.4-37.96 148.51-34.804 1.1649 0.71996 9.351 15.937 18.191 33.816 8.8404 17.879 16.384 32.897 16.763 33.374 0.37953 0.47702 17.633-1.189 38.341-3.7024 52.914-6.4222 167.31-6.4014 220.42 0.0402 20.902 2.5354 38.371 3.6301 38.819 2.4326 0.4482-1.1976 7.9269-16.463 16.619-33.923l15.805-31.746 11.408 0.73426c6.2743 0.40384 26.836 4.253 45.694 8.5537 64.603 14.734 125.36 34.384 186.76 60.408l25.493 10.804 19.279 29.591c97.546 149.72 157.87 320.04 175.11 494.35 3.7443 37.875 4.5489 151.94 1.3579 192.5l-2.1575 27.424-26.439 18.29c-60.948 42.162-133.15 81.992-197.87 109.16-33.866 14.214-98.276 37.424-103.63 37.342-5.8405-0.089-70.285-103.4-70.285-112.67 0-0.6029 8.8571-4.7589 19.682-9.2355 36.339-15.027 86.984-41.433 86.984-45.353 0-0.99589-5.6411-6.1127-12.536-11.371-12.127-9.2482-12.777-9.4352-19.939-5.7315-27.725 14.337-91.151 36.212-140.22 48.361-64.916 16.071-104.16 20.455-181.59 20.283-74.016-0.1643-102.96-3.1966-167.65-17.564-34.164-7.5876-108.85-31.856-139.54-45.343-13.962-6.1354-21.421-8.1741-24.127-6.5955-9.6542 5.6313-21.045 17.13-19.479 19.664 2.6497 4.2873 45.648 26.772 73.974 38.682 13.968 5.8732 26.81 12.001 28.536 13.617 2.4593 2.3018-0.76312 9.8021-14.878 34.629-21.936 38.584-48.312 77.213-53.219 77.941-1.9877 0.295-19.043-4.9473-37.9-11.65zm184.03-312.28c33.377-15.619 59.739-49.423 68.883-88.325 8.4824-36.091 1.2516-80.505-17.733-108.92-42.854-64.139-125.11-73.137-174.97-19.14-16.829 18.226-26.001 35.245-32.33 59.991-17.444 68.206 17.245 138.94 78.717 160.52 24.052 8.4411 53.987 6.8468 77.431-4.1237zm434.33-1.413c61.847-30.567 87.8-112.01 57.513-180.48-29.084-65.749-108.68-89.947-165.43-50.295-53.002 37.029-70.494 111.92-40.399 172.96 22.841 46.331 60.978 70.189 108.62 67.951 18.064-0.84888 23.93-2.3473 39.7-10.141z" fill="#a6a7a7" stroke-width="2.5397"/>
</svg>
